<?xml version="1.0" encoding="utf-8"?>
<!-- Generator: Adobe Illustrator 25.4.1, SVG Export Plug-In . SVG Version: 6.00 Build 0)  -->
<svg version="1.1" id="图层_1" xmlns="http://www.w3.org/2000/svg" xmlns:xlink="http://www.w3.org/1999/xlink" x="0px" y="0px"
	 viewBox="0 0 200 200" style="enable-background:new 0 0 200 200;" xml:space="preserve">
<style type="text/css">
	.st0{fill:#48C6EF;}
</style>
<path class="st0" d="M32,174.3l-0.2,0c-1.1,0-7-0.4-10.9-4.1c-4-3.8-4.5-9.2-4.5-10.2c0-0.1,0-0.2,0-0.3v-29.4
	c-0.1-1.2-0.1-5.3,1.2-9.8c1.3-4.4,2.9-7.2,3.4-8l14.8-26.1c0.1-0.1,0.2-0.3,0.2-0.4c0.5-0.7,2.9-4.2,6.3-6.3
	c3.6-2.2,7.9-2.4,9.1-2.4h93.2c0.1,0,0.2,0,0.4,0c0.9,0.1,5.7,0.5,9.5,2.6c3.6,2,6.4,5.6,7,6.3c0.1,0.1,0.2,0.3,0.3,0.4l17.5,27.8
	c0.1,0.1,0.2,0.3,0.2,0.4c0.3,0.6,2.1,4.1,2.9,7.4c0.9,3.3,1.1,6.9,1.1,7.6l0,0.2v29.4c0,1.6-0.3,6.9-4.7,10.9
	c-4.2,3.8-9.8,4-11.5,4L32,174.3L32,174.3z M30.5,118.5c-0.3,0.6-1.3,2.5-2.2,5.3c-0.9,3-0.8,5.7-0.8,6c0,0.1,0,0.3,0,0.4v29.4
	l0,0.1c0.1,0.5,0.4,1.8,0.9,2.4l0.1,0.1l0.1,0.1c0.8,0.6,2.7,0.9,3.4,0.9l135.4,0c1.1,0,3.1-0.4,4-1.2c0.8-0.7,1-1.9,1-2.1l0-0.3
	v-29.3c-0.1-1.1-0.3-3.4-0.7-5.1c-0.5-2-1.7-4.3-1.9-4.8l-0.1-0.1l-17.2-27.3l-0.1-0.1c-0.7-0.8-2.2-2.5-3.5-3.2
	c-1.1-0.6-3.3-1-4.4-1.1l-0.1,0H51.5c-0.9,0-2.5,0.2-3.2,0.7c-1.1,0.7-2.3,2.2-2.8,2.9l0,0.1l-14.7,26l-0.2,0.3l0,0
	C30.6,118.4,30.5,118.5,30.5,118.5L30.5,118.5z M99.5,69.1c-3.1,0-5.6-2.5-5.6-5.6V31.3c0-3.1,2.5-5.6,5.6-5.6
	c3.1,0,5.6,2.5,5.6,5.6v32.2C105.1,66.6,102.6,69.1,99.5,69.1L99.5,69.1z M137,68.9c-3.1,0-5.6-2.5-5.6-5.6c0-1.3,0.4-2.5,1.3-3.5
	L145.5,44c1.1-1.3,2.7-2.1,4.4-2.1c1.3,0,2.5,0.4,3.5,1.3c1.2,0.9,1.9,2.3,2,3.8c0.2,1.5-0.3,3-1.2,4.1l-12.8,15.8
	C140.3,68.1,138.7,68.9,137,68.9L137,68.9L137,68.9z M62.5,68.5c-1.7,0-3.3-0.8-4.4-2.1L45.6,50.6c-1.9-2.4-1.5-5.9,0.9-7.9
	c1-0.8,2.2-1.2,3.5-1.2c1.7,0,3.3,0.8,4.4,2.1l12.6,15.8c1.9,2.4,1.5,5.9-0.9,7.9C65.1,68,63.8,68.5,62.5,68.5L62.5,68.5z"/>
<path class="st0" d="M99.7,151.3c-12.5,0-23.3-8.4-26.4-20.3l-0.2-1l-49.8,0c-3.1,0-5.6-2.5-5.6-5.6c0-3.1,2.5-5.6,5.6-5.6l54.8,0
	c3.1,0,5.6,2.5,5.6,5.6c0,8.8,7,15.7,16,15.7c8.9,0,15.9-6.9,15.9-15.7c0-3.1,2.5-5.6,5.6-5.6l54.3,0c3.1,0,5.6,2.5,5.6,5.6
	c0,3.1-2.5,5.6-5.6,5.6l-49.3,0l-0.2,1C123,142.9,112.2,151.3,99.7,151.3L99.7,151.3z"/>
</svg>
